Patient4_TMGait_0pt7_01_left_35_GRF.mot
version=1
nRows=71
nColumns=19
inDegrees=no
endheader
time	F1x	F1y	F1z	M1x	M1y	M1z	F2x	F2y	F2z	M2x	M2y	M2z	EC1x	EC1y	EC1z	EC2x	EC2y	EC2z
40.4	2.3317	-23.0177	5.7942	3.0614	-3.1496	-35.351	-28.5152	800.0657	-59.537	301.3288	92.4288	900.9542	-0.0592	0.0182	-0.0073	-0.0462	0.0165	0.9585
40.4116	1.7375	-12.874	3.969	1.1804	-2.1258	-20.6679	-30.3127	792.0105	-63.7712	300.4215	94.2196	888.8196	-0.0592	0.0182	-0.0073	-0.0462	0.0165	0.9585
40.4233	1.219	-4.3355	2.3697	-0.39364	-1.2251	-8.3066	-31.088	784.7957	-67.4978	299.5123	95.3958	876.84	-0.0592	0.0182	-0.0073	-0.0462	0.0165	0.9585
40.4349	0.7628	2.1673	1.1095	-1.5888	-0.52167	1.1215	-30.7869	778.6894	-70.4329	298.5671	95.8308	865.4702	-0.0592	0.0182	-0.0073	-0.0462	0.0165	0.9585
40.4466	0.43096	6.681	0.21249	-2.4185	-0.020228	7.6428	-29.5604	773.5074	-72.5511	297.5094	95.5829	854.6897	-0.0592	0.0182	-0.0073	-0.0462	0.0165	0.9585
40.4582	0.16209	9.5042	-0.36269	-2.9381	0.28725	11.7207	-27.6045	768.8594	-73.9433	296.2528	94.7603	844.2226	-0.0592	0.0182	-0.0073	-0.0462	0.0165	0.9585
40.4699	-0.01994	11.0059	-0.67619	-3.2134	0.4417	13.872	-25.1325	764.2978	-74.757	294.7204	93.5001	833.7023	-0.0592	0.0182	-0.0073	-0.0462	0.0165	0.9585
40.4815	-0.17627	11.5571	-0.79929	-3.3058	0.47094	14.6781	-22.3399	759.4572	-75.0698	292.8743	91.8575	822.8173	-0.0592	0.0182	-0.0073	-0.0462	0.0165	0.9585
40.4931	-0.29107	11.3962	-0.8036	-3.2453	0.42306	14.481	-19.3615	754.1415	-74.9713	290.7282	89.8876	811.4039	-0.0592	0.0182	-0.0073	-0.0462	0.0165	0.9585
40.5048	-0.41526	10.7155	-0.73149	-3.0495	0.30641	13.5934	-16.2895	748.2877	-74.4713	288.3373	87.5683	799.4151	-0.0592	0.0182	-0.0073	-0.0462	0.0165	0.9585
40.5164	-0.51267	9.5374	-0.63489	-2.6992	0.17534	12.059	-13.1505	742.0039	-73.6101	285.7997	84.9034	786.9636	-0.0592	0.0182	-0.0073	-0.0462	0.0165	0.9585
40.5281	-0.62233	7.8825	-0.53579	-2.1758	0.042371	9.9301	-9.9015	735.5522	-72.4032	283.2481	81.8724	774.3114	-0.0592	0.0182	-0.0073	-0.0462	0.0165	0.9585
40.5397	-0.68333	5.7117	-0.45472	-1.4601	-0.053955	7.143	-6.4904	729.2282	-70.8837	280.8143	78.4736	761.7435	-0.0592	0.0182	-0.0073	-0.0462	0.0165	0.9585
40.5514	-0.67522	3.0601	-0.41077	-0.56332	-0.078529	3.7824	-2.8315	723.4174	-69.1129	278.6389	74.7337	749.6403	-0.0592	0.0182	-0.0073	-0.0462	0.0165	0.9585
40.563	-0.49587	0.077748	-0.41951	0.4572	0.027434	0.014335	1.1111	718.4244	-67.1785	276.8229	70.7222	738.3066	-0.0592	0.0182	-0.0073	-0.0462	0.0165	0.9585
40.5746	-0.052433	-2.8323	-0.51917	1.4581	0.34037	-3.6479	5.3346	714.5007	-65.2165	275.4305	66.572	728.0265	-0.0592	0.0182	-0.0073	-0.0462	0.0165	0.9585
40.5863	0.81464	-4.972	-0.71951	2.1837	0.92949	-6.3637	9.7817	711.7448	-63.3748	274.4623	62.4494	718.9452	-0.0592	0.0182	-0.0073	-0.0462	0.0165	0.9585
40.5979	2.2167	-5.1753	-1.0466	2.215	1.8641	-6.6883	14.3029	710.0577	-61.8081	273.8456	58.5466	711.0356	-0.0592	0.0182	-0.0073	-0.0462	0.0165	0.9585
40.6096	4.2875	-1.7986	-1.4864	0.96216	3.1727	-2.6023	18.782	709.2087	-60.6318	273.4611	55.015	704.1467	-0.0592	0.0182	-0.0073	-0.0462	0.0165	0.9585
40.6212	7.0197	7.3187	-2.0226	-2.3438	4.8282	8.5749	23.0575	708.8053	-59.9165	273.14	51.9782	697.9818	-0.0592	0.0182	-0.0073	-0.0462	0.0165	0.9585
40.6329	10.2902	24.6525	-2.5676	-8.5844	6.6735	29.9114	27.0428	708.3333	-59.6462	272.6804	49.4644	692.0993	-0.0592	0.0182	-0.0073	-0.0462	0.0165	0.9585
40.6445	13.675	52.7099	-2.9937	-18.6474	8.385	64.5425	30.6801	707.1054	-59.7131	271.8286	47.4005	685.8893	-0.0592	0.0182	-0.0073	-0.0462	0.0165	0.9585
40.6561	16.3885	93.3084	-3.0627	-33.1738	9.3787	114.7428	33.9633	704.0662	-59.9091	270.2107	45.6101	678.3693	-0.0592	0.0182	-0.0073	-0.0462	0.0165	0.9585
40.6678	17.1151	146.6108	-2.4616	-52.2068	8.7876	180.7799	36.8806	697.7431	-59.9672	267.3013	43.8649	668.173	-0.0592	0.0182	-0.0073	-0.0462	0.0165	0.9585
40.6794	14.1424	210.2077	-0.79963	-74.8644	5.5358	259.7177	39.432	686.276	-59.5562	262.4434	41.8787	653.5445	-0.0592	0.0182	-0.0073	-0.0462	0.0165	0.9585
40.6911	6.6811	279.086	2.426	-99.3131	-1.2672	345.3433	41.5326	667.7204	-58.3405	254.9464	39.3929	632.6888	-0.0592	0.0182	-0.0073	-0.0462	0.0165	0.9585
40.7027	-3.9326	346.0499	7.8792	-122.9531	-11.8762	428.5019	43.0683	640.3392	-56.064	244.1949	36.2408	603.9989	-0.0592	0.0182	-0.0073	-0.0462	0.0165	0.9585
40.7144	-15.2488	404.5922	15.4563	-143.4927	-25.2074	500.6798	43.8365	603.0066	-52.633	229.7862	32.4322	566.4749	-0.0592	0.0182	-0.0073	-0.0462	0.0165	0.9585
40.726	-25.6472	453.2523	24.1875	-160.427	-39.4587	559.6518	43.6687	555.556	-48.1353	211.6509	28.1237	519.9874	-0.0592	0.0182	-0.0073	-0.0462	0.0165	0.9585
40.7376	-34.5473	495.0942	32.9975	-174.8684	-53.127	609.0395	42.414	498.9184	-42.8387	190.1046	23.6096	465.4518	-0.0592	0.0182	-0.0073	-0.0462	0.0165	0.9585
40.7493	-41.793	534.344	41.0493	-188.3361	-65.1504	654.1039	40.0345	434.9417	-37.1249	165.8051	19.2287	404.5863	-0.0592	0.0182	-0.0073	-0.0462	0.0165	0.9585
40.7609	-47.2318	573.714	47.8494	-201.7835	-74.909	698.3364	36.5006	366.2911	-31.3117	139.7269	15.2499	339.8778	-0.0592	0.0182	-0.0073	-0.0462	0.0165	0.9585
40.7726	-50.795	613.3342	53.3255	-215.2325	-82.3061	742.0854	31.8811	296.224	-25.6709	113.0905	11.8688	274.3083	-0.0592	0.0182	-0.0073	-0.0462	0.0165	0.9585
40.7842	-52.4984	651.8673	57.7461	-228.1411	-87.681	783.8434	26.4023	228.4396	-20.4136	87.2873	9.1587	211.2431	-0.0592	0.0182	-0.0073	-0.0462	0.0165	0.9585
40.7959	-52.5228	687.3441	61.53	-239.7465	-91.6198	821.5095	20.5454	166.5016	-15.7018	63.6758	7.0667	153.8575	-0.0592	0.0182	-0.0073	-0.0462	0.0165	0.9585
40.8075	-51.2385	718.033	65.0821	-249.3868	-94.7405	853.2344	14.8997	113.2755	-11.6058	43.3561	5.4273	104.6809	-0.0592	0.0182	-0.0073	-0.0462	0.0165	0.9585
40.8191	-49.0584	742.538	68.5704	-256.5654	-97.4081	877.5926	9.9592	70.3776	-8.137	26.9638	4.0746	65.104	-0.0592	0.0182	-0.0073	-0.0462	0.0165	0.9585
40.8308	-46.3086	759.7939	72.002	-260.9508	-99.7633	893.5023	5.9041	38.1692	-5.2682	14.6506	2.9218	35.4282	-0.0592	0.0182	-0.0073	-0.0462	0.0165	0.9585
40.8424	-43.2858	769.3766	75.1637	-262.4695	-101.6832	900.5385	2.8076	15.949	-3.0029	6.1518	1.9612	14.977	-0.0592	0.0182	-0.0073	-0.0462	0.0165	0.9585
40.8541	-40.0576	771.5431	77.7545	-261.3222	-102.8709	899.0671	0.62063	2.1914	-1.3527	0.88565	1.2233	2.344	-0.0592	0.0182	-0.0073	-0.0462	0.0165	0.9585
40.8657	-36.6286	767.2671	79.4994	-257.9576	-103.039	890.2215	-0.74943	-5.0781	-0.29486	-1.9028	0.72722	-4.3113	-0.0592	0.0182	-0.0073	-0.0462	0.0165	0.9585
40.8774	-33.0524	757.7849	80.3391	-252.91	-102.1428	875.4138	-1.5023	-7.8204	0.32328	-2.9637	0.40519	-6.7866	-0.0592	0.0182	-0.0073	-0.0462	0.0165	0.9585
40.889	-29.383	744.6133	80.3598	-246.7868	-100.3095	856.3981	-1.8038	-7.7509	0.60206	-2.9505	0.2329	-6.6781	-0.0592	0.0182	-0.0073	-0.0462	0.0165	0.9585
40.9006	-25.6913	729.4105	79.7694	-240.2218	-97.7994	835.036	-1.8354	-6.1542	0.66743	-2.3572	0.16243	-5.1611	-0.0592	0.0182	-0.0073	-0.0462	0.0165	0.9585
40.9123	-22.1088	713.8226	78.709	-233.8327	-94.8258	813.1799	-1.7077	-3.9797	0.60868	-1.5418	0.15394	-3.1232	-0.0592	0.0182	-0.0073	-0.0462	0.0165	0.9585
40.9239	-18.6773	699.5011	77.2565	-228.2155	-91.5073	792.6393	-1.5268	-1.7774	0.48743	-0.71643	0.18552	-1.0496	-0.0592	0.0182	-0.0073	-0.0462	0.0165	0.9585
40.9356	-15.4675	687.8561	75.4154	-223.8746	-87.8845	774.9316	-1.336	0.1125	0.35483	-0.0054191	0.22808	0.7317	-0.0592	0.0182	-0.0073	-0.0462	0.0165	0.9585
40.9472	-12.4454	679.9779	73.2088	-221.1901	-83.979	761.1764	-1.174	1.5779	0.22401	0.54681	0.28355	2.133	-0.0592	0.0182	-0.0073	-0.0462	0.0165	0.9585
40.9589	-9.519	676.5095	70.7077	-220.3719	-79.8362	752.0154	-1.0303	2.5871	0.12079	0.93288	0.32439	3.0965	-0.0592	0.0182	-0.0073	-0.0462	0.0165	0.9585
40.9705	-6.5732	677.5663	68.0231	-221.4397	-75.5278	747.4843	-0.92519	3.2089	0.032908	1.1766	0.36527	3.6941	-0.0592	0.0182	-0.0073	-0.0462	0.0165	0.9585
40.9821	-3.4799	682.9143	65.3023	-224.2733	-71.1551	747.2654	-0.82479	3.5243	-0.028135	1.3094	0.38565	3.9913	-0.0592	0.0182	-0.0073	-0.0462	0.0165	0.9585
40.9938	-0.1201	692.0224	62.6786	-228.6427	-66.8063	750.7572	-0.75584	3.6289	-0.077133	1.3651	0.40342	4.0972	-0.0592	0.0182	-0.0073	-0.0462	0.0165	0.9585
41.0054	3.4858	704.2618	60.2583	-234.2663	-62.5769	757.3006	-0.69424	3.6182	-0.10798	1.3772	0.40865	4.091	-0.0592	0.0182	-0.0073	-0.0462	0.0165	0.9585
41.0171	7.2648	718.8553	58.1351	-240.8014	-58.5702	766.1494	-0.66253	3.5557	-0.12894	1.3683	0.41315	4.0463	-0.0592	0.0182	-0.0073	-0.0462	0.0165	0.9585
41.0287	11.0531	734.8265	56.4166	-247.828	-54.9373	776.3985	-0.64442	3.4865	-0.13712	1.3558	0.40855	3.9912	-0.0592	0.0182	-0.0073	-0.0462	0.0165	0.9585
41.0404	14.6639	751.0422	55.2061	-254.8729	-51.8406	786.9751	-0.65624	3.4509	-0.13744	1.351	0.40215	3.9638	-0.0592	0.0182	-0.0073	-0.0462	0.0165	0.9585
41.052	17.9817	766.3381	54.5789	-261.4664	-49.4016	796.8025	-0.68511	3.4378	-0.13653	1.3511	0.3981	3.9434	-0.0592	0.0182	-0.0073	-0.0462	0.0165	0.9585
41.0636	20.9631	779.7644	54.544	-267.2323	-47.6487	804.956	-0.74941	3.4453	-0.14006	1.3533	0.40816	3.9334	-0.0592	0.0182	-0.0073	-0.0462	0.0165	0.9585
41.0753	23.6223	790.6725	55.0306	-271.9234	-46.5081	810.8026	-0.85037	3.425	-0.15309	1.3403	0.44176	3.8844	-0.0592	0.0182	-0.0073	-0.0462	0.0165	0.9585
41.0869	26.0073	798.7578	55.9004	-275.4288	-45.8357	814.0454	-0.99926	3.3093	-0.17366	1.2862	0.50661	3.7332	-0.0592	0.0182	-0.0073	-0.0462	0.0165	0.9585
41.0986	28.1154	803.9247	57.0081	-277.7253	-45.5	814.5931	-1.1938	3.0007	-0.20138	1.1537	0.60653	3.3547	-0.0592	0.0182	-0.0073	-0.0462	0.0165	0.9585
41.1102	29.9325	806.1752	58.2201	-278.8286	-45.3884	812.4819	-1.4284	2.3855	-0.23654	0.89983	0.74066	2.6111	-0.0592	0.0182	-0.0073	-0.0462	0.0165	0.9585
41.1219	31.4533	805.5561	59.4653	-278.7665	-45.4454	807.7934	-1.6714	1.3322	-0.28044	0.47855	0.89495	1.3376	-0.0592	0.0182	-0.0073	-0.0462	0.0165	0.9585
41.1335	32.6433	802.1207	60.7076	-277.5711	-45.6577	800.6123	-1.8689	-0.2468	-0.32694	-0.14265	1.0412	-0.57929	-0.0592	0.0182	-0.0073	-0.0462	0.0165	0.9585
41.1451	33.534	796.0295	61.9352	-275.31	-46.0116	791.1142	-1.9414	-2.3835	-0.3634	-0.97505	1.1301	-3.1951	-0.0592	0.0182	-0.0073	-0.0462	0.0165	0.9585
41.1568	34.1907	787.5271	63.14	-272.0814	-46.4853	779.538	-1.7691	-4.9698	-0.3653	-1.9769	1.0824	-6.388	-0.0592	0.0182	-0.0073	-0.0462	0.0165	0.9585
41.1684	34.7117	776.9532	64.3261	-268.0175	-47.0533	766.1822	-1.1997	-7.7024	-0.3069	-3.0292	0.80315	-9.7892	-0.0592	0.0182	-0.0073	-0.0462	0.0165	0.9585
41.1801	35.2408	764.8468	65.5004	-263.3165	-47.6758	751.5295	-0.0514	-9.9901	-0.14437	-3.8986	0.16411	-12.6693	-0.0592	0.0182	-0.0073	-0.0462	0.0165	0.9585
41.1917	35.9277	751.9176	66.7054	-258.235	-48.3381	736.1902	1.8811	-10.8386	0.16703	-4.1968	-0.96759	-13.8073	-0.0592	0.0182	-0.0073	-0.0462	0.0165	0.9585
41.2034	36.9232	739.0158	68.0136	-253.0715	-49.0505	720.9063	4.7694	-8.7966	0.67659	-3.356	-2.7082	-11.4236	-0.0592	0.0182	-0.0073	-0.0462	0.0165	0.9585
41.215	38.3897	726.9296	69.4936	-248.1072	-49.809	706.3758	8.682	-1.9103	1.4237	-0.61419	-5.1118	-3.0969	-0.0592	0.0182	-0.0073	-0.0462	0.0165	0.9585
